<svg width="24.000000" height="24.000000" viewBox="0 0 24 24" fill="none" xmlns="http://www.w3.org/2000/svg" xmlns:xlink="http://www.w3.org/1999/xlink">
	<desc>
			Created with Pixso.
	</desc>
	<defs>
		<clipPath id="clip1_2108">
			<rect id="ic:baseline-discord" rx="0.000000" width="23.000000" height="23.000000" transform="translate(0.500000 0.500000)" fill="white" fill-opacity="0"/>
		</clipPath>
	</defs>
	<rect id="ic:baseline-discord" rx="0.000000" width="23.000000" height="23.000000" transform="translate(0.500000 0.500000)" fill="#FFFFFF" fill-opacity="0"/>
	<g clip-path="url(#clip1_2108)">
		<path id="Vector" d="M19.27 5.33C17.94 4.71 16.5 4.26 15 4C14.97 4 14.94 4.01 14.93 4.03C14.75 4.35 14.54 4.78 14.4 5.12C12.8 4.88 11.19 4.88 9.6 5.12C9.46 4.78 9.24 4.35 9.06 4.03C9.05 4.01 9.02 4 8.99 4C7.49 4.26 6.06 4.71 4.71 5.33C4.7 5.33 4.69 5.34 4.68 5.34C1.96 9.41 1.21 13.38 1.59 17.29C1.59 17.32 1.6 17.34 1.62 17.35C3.42 18.67 5.14 19.46 6.85 20C6.89 20.01 6.92 20 6.92 19.98C7.32 19.43 7.68 18.85 7.99 18.24C8.02 18.2 7.99 18.16 7.95 18.15C7.38 17.93 6.85 17.67 6.31 17.37C6.28 17.35 6.28 17.29 6.31 17.26C6.42 17.18 6.53 17.09 6.63 17.01C6.66 16.99 6.68 16.99 6.7 17C10.14 18.57 13.86 18.57 17.26 17C17.28 16.99 17.31 16.99 17.33 17.01C17.44 17.1 17.54 17.18 17.66 17.27C17.7 17.29 17.7 17.36 17.65 17.37C17.12 17.69 16.58 17.94 16.01 18.16C15.97 18.17 15.96 18.21 15.97 18.25C16.29 18.86 16.65 19.44 17.04 19.99C17.07 20 17.1 20.01 17.12 20C18.85 19.46 20.58 18.67 22.38 17.35C22.4 17.34 22.41 17.32 22.41 17.29C22.85 12.77 21.68 8.84 19.31 5.34C19.29 5.34 19.29 5.33 19.27 5.33ZM8.52 14.91C7.49 14.91 6.63 13.96 6.63 12.79C6.63 11.62 7.46 10.67 8.52 10.67C9.57 10.67 10.42 11.63 10.41 12.79C10.41 13.96 9.56 14.91 8.52 14.91ZM15.49 14.91C14.46 14.91 13.6 13.96 13.6 12.79C13.6 11.62 14.44 10.67 15.49 10.67C16.54 10.67 17.39 11.63 17.37 12.79C17.37 13.96 16.54 14.91 15.49 14.91Z" fill="#FFFFFF" fill-opacity="1.000000" fill-rule="nonzero"/>
	</g>
</svg>
