<svg width="24.000000" height="24.000000" viewBox="0 0 24 24" fill="none" xmlns="http://www.w3.org/2000/svg" xmlns:xlink="http://www.w3.org/1999/xlink">
	<desc>
			Created with Pixso.
	</desc>
	<defs>
		<clipPath id="clip1_2130">
			<rect id="ph:reddit-logo-fill" rx="0.000000" width="22.500000" height="22.500000" transform="translate(0.750000 0.750000)" fill="white" fill-opacity="0"/>
		</clipPath>
	</defs>
	<rect id="ph:reddit-logo-fill" rx="0.000000" width="22.500000" height="22.500000" transform="translate(0.750000 0.750000)" fill="#FFFFFF" fill-opacity="0"/>
	<g clip-path="url(#clip1_2130)">
		<path id="Vector" d="M23.25 9.75C23.25 9.17 23.08 8.61 22.77 8.12C22.46 7.64 22.01 7.26 21.49 7.02C20.97 6.78 20.39 6.69 19.82 6.78C19.25 6.86 18.72 7.1 18.28 7.48C16.71 6.64 14.84 6.14 12.88 6.02L13.36 3.1L15.02 3.35C15.11 3.88 15.38 4.36 15.78 4.7C16.18 5.05 16.69 5.24 17.22 5.25C17.75 5.25 18.27 5.07 18.68 4.73C19.09 4.39 19.36 3.92 19.46 3.4C19.55 2.88 19.46 2.34 19.2 1.88C18.93 1.42 18.52 1.07 18.02 0.88C17.52 0.7 16.97 0.7 16.47 0.88C15.98 1.07 15.56 1.42 15.29 1.88L12.86 1.5C12.66 1.47 12.46 1.52 12.3 1.64C12.14 1.75 12.03 1.93 12 2.12L11.36 6.01C9.31 6.1 7.34 6.61 5.71 7.48C5.11 6.97 4.34 6.72 3.56 6.78C2.78 6.83 2.05 7.19 1.53 7.77C1.01 8.36 0.74 9.12 0.78 9.9C0.81 10.68 1.15 11.42 1.72 11.95C1.57 12.45 1.5 12.97 1.5 13.5C1.5 15.55 2.62 17.47 4.67 18.88C6.64 20.25 9.24 21 12 21C14.75 21 17.35 20.25 19.32 18.88C21.37 17.47 22.5 15.55 22.5 13.5C22.49 12.97 22.42 12.45 22.27 11.95C22.58 11.67 22.82 11.33 22.99 10.95C23.16 10.57 23.24 10.16 23.25 9.75ZM6.75 12C6.75 11.7 6.83 11.41 7 11.16C7.16 10.92 7.4 10.72 7.67 10.61C7.95 10.5 8.25 10.47 8.54 10.52C8.83 10.58 9.1 10.72 9.31 10.93C9.52 11.14 9.66 11.41 9.72 11.7C9.77 11.99 9.74 12.3 9.63 12.57C9.52 12.84 9.33 13.08 9.08 13.24C8.83 13.41 8.54 13.5 8.25 13.5C7.85 13.5 7.47 13.34 7.18 13.06C6.9 12.77 6.75 12.39 6.75 12ZM15.35 17.16C14.31 17.71 13.16 17.99 12 17.99C10.83 17.99 9.68 17.71 8.64 17.16C8.56 17.11 8.48 17.05 8.42 16.97C8.35 16.9 8.31 16.81 8.28 16.72C8.25 16.62 8.24 16.52 8.25 16.42C8.26 16.33 8.29 16.23 8.33 16.14C8.38 16.06 8.44 15.98 8.52 15.92C8.59 15.85 8.68 15.81 8.78 15.78C8.87 15.75 8.97 15.74 9.07 15.75C9.16 15.76 9.26 15.79 9.35 15.83C10.16 16.27 11.07 16.49 12 16.49C12.92 16.49 13.83 16.27 14.64 15.83C14.73 15.79 14.83 15.76 14.92 15.75C15.02 15.74 15.12 15.75 15.22 15.78C15.31 15.81 15.4 15.85 15.47 15.92C15.55 15.98 15.61 16.06 15.66 16.14C15.7 16.23 15.73 16.33 15.74 16.42C15.75 16.52 15.74 16.62 15.71 16.72C15.68 16.81 15.64 16.9 15.57 16.97C15.51 17.05 15.43 17.11 15.35 17.16ZM15.75 13.5C15.45 13.5 15.16 13.41 14.91 13.24C14.67 13.08 14.47 12.84 14.36 12.57C14.25 12.3 14.22 11.99 14.27 11.7C14.33 11.41 14.47 11.14 14.68 10.93C14.89 10.72 15.16 10.58 15.45 10.52C15.74 10.47 16.05 10.5 16.32 10.61C16.59 10.72 16.83 10.92 16.99 11.16C17.16 11.41 17.25 11.7 17.25 12C17.25 12.39 17.09 12.77 16.81 13.06C16.52 13.34 16.14 13.5 15.75 13.5Z" fill="#FFFFFF" fill-opacity="1.000000" fill-rule="nonzero"/>
	</g>
</svg>
