<svg width="24.000000" height="24.000000" viewBox="0 0 24 24" fill="none" xmlns="http://www.w3.org/2000/svg" xmlns:xlink="http://www.w3.org/1999/xlink">
	<desc>
			Created with Pixso.
	</desc>
	<defs>
		<clipPath id="clip1_2127">
			<rect id="file-icons:telegram" rx="0.000000" width="22.500000" height="22.500000" transform="translate(0.750000 0.750000)" fill="white" fill-opacity="0"/>
		</clipPath>
	</defs>
	<rect id="file-icons:telegram" rx="0.000000" width="22.500000" height="22.500000" transform="translate(0.750000 0.750000)" fill="#FFFFFF" fill-opacity="0"/>
	<g clip-path="url(#clip1_2127)">
		<path id="Vector" d="M22.05 2.12L0.78 10.37C-0.07 10.75 -0.36 11.52 0.58 11.94L6.03 13.68L19.22 5.48C19.94 4.97 20.68 5.11 20.04 5.67L8.72 15.98L8.36 20.35C8.69 21.02 9.29 21.02 9.68 20.69L12.81 17.71L18.18 21.75C19.43 22.49 20.1 22.01 20.37 20.65L23.89 3.89C24.26 2.22 23.64 1.48 22.05 2.12Z" fill="#FFFFFF" fill-opacity="1.000000" fill-rule="nonzero"/>
	</g>
</svg>
