<svg width="24.000000" height="24.000000" viewBox="0 0 24 24" fill="none" xmlns="http://www.w3.org/2000/svg" xmlns:xlink="http://www.w3.org/1999/xlink">
	<desc>
			Created with Pixso.
	</desc>
	<defs>
		<clipPath id="clip1_2114">
			<rect id="mingcute:youtube-fill" rx="0.000000" width="23.000000" height="23.000000" transform="translate(0.500000 0.500000)" fill="white" fill-opacity="0"/>
		</clipPath>
	</defs>
	<rect id="mingcute:youtube-fill" rx="0.000000" width="23.000000" height="23.000000" transform="translate(0.500000 0.500000)" fill="#FFFFFF" fill-opacity="0"/>
	<g clip-path="url(#clip1_2114)">
		<path id="Vector" d="M12 4C12.85 4 13.73 4.02 14.58 4.05L15.58 4.1L16.54 4.16L17.44 4.22L18.26 4.28C19.16 4.35 20 4.73 20.64 5.36C21.27 5.98 21.67 6.82 21.76 7.71L21.8 8.13L21.87 9.04C21.94 9.98 22 11.01 22 12C22 12.98 21.94 14.01 21.87 14.95L21.8 15.86L21.76 16.28C21.67 17.17 21.27 18.01 20.63 18.63C20 19.26 19.16 19.64 18.26 19.71L17.44 19.77L16.54 19.83L15.58 19.89L14.58 19.94C13.72 19.97 12.86 19.99 12 20C11.13 19.99 10.27 19.97 9.41 19.94L8.41 19.89L7.45 19.83L6.55 19.77L5.73 19.71C4.83 19.64 3.99 19.26 3.36 18.63C2.72 18.01 2.32 17.17 2.23 16.28L2.19 15.86L2.12 14.95C2.04 13.97 2 12.98 2 12C2 11.01 2.05 9.98 2.12 9.04L2.19 8.13L2.23 7.71C2.32 6.82 2.72 5.98 3.35 5.36C3.99 4.73 4.83 4.35 5.73 4.28L6.55 4.22L7.45 4.16L8.41 4.1L9.41 4.05C10.27 4.02 11.13 4 12 4ZM10 9.57L10 14.42C10 14.88 10.5 15.17 10.9 14.94L15.1 12.52C15.19 12.46 15.26 12.39 15.32 12.3C15.37 12.2 15.4 12.1 15.4 12C15.4 11.89 15.37 11.79 15.32 11.69C15.26 11.6 15.19 11.53 15.1 11.48L10.9 9.05C10.8 9 10.7 8.97 10.59 8.97C10.49 8.97 10.39 9 10.29 9.05C10.2 9.1 10.13 9.18 10.08 9.27C10.02 9.36 9.99 9.47 10 9.57L10 9.57Z" fill="#FFFFFF" fill-opacity="1.000000" fill-rule="evenodd"/>
	</g>
</svg>
