<svg width="24.000000" height="24.000000" viewBox="0 0 24 24" fill="none" xmlns="http://www.w3.org/2000/svg" xmlns:xlink="http://www.w3.org/1999/xlink">
	<desc>
			Created with Pixso.
	</desc>
	<defs>
		<clipPath id="clip1_2161">
			<rect id="solar:widget-line-duotone" rx="0.000000" width="23.000000" height="23.000000" transform="translate(0.500000 0.500000)" fill="white" fill-opacity="0"/>
		</clipPath>
	</defs>
	<rect id="solar:widget-line-duotone" rx="0.000000" width="23.000000" height="23.000000" transform="translate(0.500000 0.500000)" fill="#FFFFFF" fill-opacity="0"/>
	<g clip-path="url(#clip1_2161)">
		<g opacity="0.500000">
			<path id="Vector" d="M3.08 3.08C3.67 2.5 4.61 2.5 6.5 2.5C8.38 2.5 9.32 2.5 9.91 3.08C10.5 3.67 10.5 4.61 10.5 6.5C10.5 8.38 10.5 9.32 9.91 9.91C9.32 10.5 8.38 10.5 6.5 10.5C4.61 10.5 3.67 10.5 3.08 9.91C2.5 9.32 2.5 8.38 2.5 6.5C2.5 4.61 2.5 3.67 3.08 3.08ZM14.08 14.08C14.67 13.5 15.61 13.5 17.5 13.5C19.38 13.5 20.32 13.5 20.91 14.08C21.5 14.67 21.5 15.61 21.5 17.5C21.5 19.38 21.5 20.32 20.91 20.91C20.32 21.5 19.38 21.5 17.5 21.5C15.61 21.5 14.67 21.5 14.08 20.91C13.5 20.32 13.5 19.38 13.5 17.5C13.5 15.61 13.5 14.67 14.08 14.08Z" stroke="#4470FE" stroke-opacity="1.000000" stroke-width="1.500000"/>
		</g>
		<path id="Vector" d="M3.08 14.08C3.67 13.5 4.61 13.5 6.5 13.5C8.38 13.5 9.32 13.5 9.91 14.08C10.5 14.67 10.5 15.61 10.5 17.5C10.5 19.38 10.5 20.32 9.91 20.91C9.32 21.5 8.38 21.5 6.5 21.5C4.61 21.5 3.67 21.5 3.08 20.91C2.5 20.32 2.5 19.38 2.5 17.5C2.5 15.61 2.5 14.67 3.08 14.08ZM14.08 3.08C14.67 2.5 15.61 2.5 17.5 2.5C19.38 2.5 20.32 2.5 20.91 3.08C21.5 3.67 21.5 4.61 21.5 6.5C21.5 8.38 21.5 9.32 20.91 9.91C20.32 10.5 19.38 10.5 17.5 10.5C15.61 10.5 14.67 10.5 14.08 9.91C13.5 9.32 13.5 8.38 13.5 6.5C13.5 4.61 13.5 3.67 14.08 3.08Z" stroke="#4470FE" stroke-opacity="1.000000" stroke-width="1.500000"/>
	</g>
</svg>
