<svg width="24.000000" height="24.000000" viewBox="0 0 24 24" fill="none" xmlns="http://www.w3.org/2000/svg" xmlns:xlink="http://www.w3.org/1999/xlink">
	<desc>
			Created with Pixso.
	</desc>
	<defs>
		<clipPath id="clip1_2530">
			<rect id="ph:coins-duotone" rx="0.000000" width="22.500000" height="22.500000" transform="translate(0.750000 0.750000)" fill="white" fill-opacity="0"/>
		</clipPath>
	</defs>
	<rect id="ph:coins-duotone" rx="0.000000" width="22.500000" height="22.500000" transform="translate(0.750000 0.750000)" fill="#FFFFFF" fill-opacity="0"/>
	<g clip-path="url(#clip1_2530)">
		<g opacity="0.200000">
			<path id="Vector" d="M22.5 12.37C22.5 14.23 19.14 15.75 15 15.75C13.16 15.75 11.47 15.45 10.17 14.95C13.75 14.7 16.5 13.31 16.5 11.62L16.5 9.06C19.92 9.38 22.5 10.74 22.5 12.37ZM16.5 7.87C16.5 6.01 13.14 4.5 9 4.5C4.85 4.5 1.5 6.01 1.5 7.87C1.5 9.73 4.85 11.25 9 11.25C13.14 11.25 16.5 9.73 16.5 7.87Z" fill="#4470FE" fill-opacity="1.000000" fill-rule="nonzero"/>
		</g>
		<path id="Vector" d="M17.25 8.39L17.25 7.87C17.25 5.52 13.7 3.75 9 3.75C4.29 3.75 0.75 5.52 0.75 7.87L0.75 11.62C0.75 13.58 3.21 15.13 6.75 15.6L6.75 16.12C6.75 18.47 10.29 20.25 15 20.25C19.7 20.25 23.25 18.47 23.25 16.12L23.25 12.37C23.25 10.43 20.86 8.87 17.25 8.39ZM21.75 12.37C21.75 13.61 18.86 15 15 15C14.65 15 14.3 14.98 13.96 14.96C15.98 14.22 17.25 13.03 17.25 11.62L17.25 9.91C20.05 10.33 21.75 11.46 21.75 12.37ZM6.75 14.08L6.75 11.85C7.49 11.95 8.24 12 9 12C9.75 12 10.5 11.95 11.25 11.85L11.25 14.08C10.5 14.19 9.75 14.25 9 14.25C8.24 14.25 7.49 14.19 6.75 14.08ZM15.75 10.3L15.75 11.62C15.75 12.41 14.58 13.25 12.75 13.76L12.75 11.57C13.96 11.28 14.98 10.84 15.75 10.3ZM9 5.25C12.86 5.25 15.75 6.63 15.75 7.87C15.75 9.11 12.86 10.5 9 10.5C5.13 10.5 2.25 9.11 2.25 7.87C2.25 6.63 5.13 5.25 9 5.25ZM2.25 11.62L2.25 10.3C3.01 10.84 4.03 11.28 5.25 11.57L5.25 13.76C3.41 13.25 2.25 12.41 2.25 11.62ZM8.25 16.12L8.25 15.73C8.49 15.74 8.74 15.75 9 15.75C9.36 15.75 9.71 15.73 10.06 15.71C10.45 15.85 10.84 15.97 11.25 16.06L11.25 18.26C9.41 17.75 8.25 16.91 8.25 16.12ZM12.75 18.58L12.75 16.35C13.49 16.45 14.24 16.5 15 16.5C15.75 16.5 16.5 16.45 17.25 16.35L17.25 18.58C15.75 18.8 14.24 18.8 12.75 18.58ZM18.75 18.26L18.75 16.07C19.96 15.78 20.98 15.34 21.75 14.8L21.75 16.12C21.75 16.91 20.58 17.75 18.75 18.26Z" fill="#4470FE" fill-opacity="1.000000" fill-rule="nonzero"/>
	</g>
</svg>
