<svg width="24.000000" height="24.000000" viewBox="0 0 24 24" fill="none" xmlns="http://www.w3.org/2000/svg" xmlns:xlink="http://www.w3.org/1999/xlink">
	<desc>
			Created with Pixso.
	</desc>
	<defs>
		<clipPath id="clip1_2769">
			<rect id="solar:leaf-line-duotone" rx="0.000000" width="23.000000" height="23.000000" transform="translate(0.500000 0.500000)" fill="white" fill-opacity="0"/>
		</clipPath>
	</defs>
	<rect id="solar:leaf-line-duotone" rx="0.000000" width="23.000000" height="23.000000" transform="translate(0.500000 0.500000)" fill="#FFFFFF" fill-opacity="0"/>
	<g clip-path="url(#clip1_2769)">
		<g opacity="0.500000">
			<path id="Vector" d="M12 9L16.5 4.5M12 14.5L18.5 8M12 19.5L19.5 12" stroke="#4470FE" stroke-opacity="1.000000" stroke-width="1.500000"/>
		</g>
		<path id="Vector" d="M20 13.85C20 9.39 17.44 4.18 13.46 2.32C13 2.11 12.5 2 12 2C11.49 2 10.99 2.11 10.53 2.32C6.55 4.18 4 9.39 4 13.85C4 18.35 7.58 22 12 22C16.41 22 20 18.35 20 13.85ZM12 22L12 2" stroke="#4470FE" stroke-opacity="1.000000" stroke-width="1.500000"/>
	</g>
</svg>
