<svg width="24.000000" height="24.000000" viewBox="0 0 24 24" fill="none" xmlns="http://www.w3.org/2000/svg" xmlns:xlink="http://www.w3.org/1999/xlink">
	<desc>
			Created with Pixso.
	</desc>
	<defs>
		<clipPath id="clip1_2089">
			<rect id="solar:refresh-bold-duotone" rx="0.000000" width="23.000000" height="23.000000" transform="translate(0.500000 0.500000)" fill="white" fill-opacity="0"/>
		</clipPath>
	</defs>
	<rect id="solar:refresh-bold-duotone" rx="0.000000" width="23.000000" height="23.000000" transform="translate(0.500000 0.500000)" fill="#FFFFFF" fill-opacity="0"/>
	<g clip-path="url(#clip1_2089)">
		<path id="Vector" d="M12.07 2.25C7.28 2.25 3.34 5.91 2.96 10.58L2 10.58C1.85 10.58 1.7 10.62 1.58 10.7C1.45 10.79 1.36 10.91 1.3 11.04C1.24 11.18 1.23 11.33 1.26 11.48C1.29 11.62 1.36 11.76 1.47 11.86L3.15 13.53C3.29 13.67 3.48 13.74 3.68 13.74C3.87 13.74 4.06 13.67 4.2 13.53L5.88 11.86C5.99 11.76 6.06 11.62 6.09 11.48C6.12 11.33 6.11 11.18 6.05 11.04C5.99 10.91 5.9 10.79 5.77 10.7C5.65 10.62 5.5 10.58 5.36 10.58L4.46 10.58C4.84 6.75 8.1 3.75 12.07 3.75C13.38 3.74 14.67 4.08 15.82 4.71C16.96 5.35 17.92 6.27 18.61 7.39C18.66 7.47 18.73 7.55 18.81 7.61C18.89 7.67 18.98 7.71 19.08 7.74C19.17 7.76 19.27 7.77 19.37 7.75C19.47 7.74 19.57 7.7 19.65 7.65C19.74 7.6 19.81 7.53 19.87 7.45C19.93 7.37 19.97 7.27 19.99 7.18C20.01 7.08 20.02 6.98 20 6.88C19.98 6.78 19.94 6.69 19.89 6.6C19.07 5.27 17.92 4.17 16.55 3.4C15.18 2.64 13.64 2.24 12.07 2.25Z" fill="#FFFFFF" fill-opacity="1.000000" fill-rule="nonzero"/>
		<g opacity="0.500000">
			<path id="Vector" d="M20.84 10.46C20.7 10.32 20.51 10.25 20.31 10.25C20.11 10.25 19.92 10.32 19.78 10.46L18.1 12.13C17.99 12.23 17.92 12.37 17.89 12.51C17.86 12.66 17.87 12.81 17.93 12.95C17.98 13.08 18.08 13.2 18.2 13.29C18.33 13.37 18.47 13.41 18.62 13.41L19.52 13.41C19.14 17.24 15.87 20.25 11.88 20.25C10.56 20.25 9.27 19.92 8.12 19.28C6.97 18.64 6 17.72 5.31 16.6C5.26 16.52 5.19 16.44 5.11 16.38C5.03 16.32 4.94 16.28 4.85 16.25C4.75 16.23 4.65 16.23 4.55 16.24C4.45 16.26 4.36 16.29 4.27 16.34C4.19 16.4 4.11 16.47 4.06 16.55C4 16.63 3.96 16.72 3.93 16.82C3.91 16.91 3.91 17.02 3.93 17.11C3.95 17.21 3.98 17.31 4.04 17.39C4.86 18.72 6.02 19.82 7.39 20.59C8.76 21.35 10.31 21.75 11.88 21.75C16.69 21.75 20.64 18.09 21.03 13.41L22 13.41C22.14 13.41 22.29 13.37 22.41 13.29C22.54 13.2 22.63 13.08 22.69 12.95C22.75 12.81 22.76 12.66 22.73 12.51C22.7 12.37 22.63 12.23 22.52 12.13L20.84 10.46Z" fill="#FFFFFF" fill-opacity="1.000000" fill-rule="nonzero"/>
		</g>
	</g>
</svg>
