<svg width="24.000000" height="24.000000" viewBox="0 0 24 24" fill="none" xmlns="http://www.w3.org/2000/svg" xmlns:xlink="http://www.w3.org/1999/xlink">
	<desc>
			Created with Pixso.
	</desc>
	<defs>
		<clipPath id="clip1_2850">
			<rect id="solar:calculator-minimalistic-line-duotone" rx="0.000000" width="23.000000" height="23.000000" transform="translate(0.500000 0.500000)" fill="white" fill-opacity="0"/>
		</clipPath>
	</defs>
	<rect id="solar:calculator-minimalistic-line-duotone" rx="0.000000" width="23.000000" height="23.000000" transform="translate(0.500000 0.500000)" fill="#FFFFFF" fill-opacity="0"/>
	<g clip-path="url(#clip1_2850)">
		<path id="Vector" d="M12 22C16.71 22 19.07 22 20.53 20.53C22 19.07 22 16.71 22 12C22 7.28 22 4.92 20.53 3.46C19.07 2 16.71 2 12 2C7.28 2 4.92 2 3.46 3.46C2 4.92 2 7.28 2 12C2 16.71 2 19.07 3.46 20.53C4.93 22 7.28 22 12 22Z" stroke="#4470FE" stroke-opacity="1.000000" stroke-width="1.500000"/>
		<g opacity="0.500000">
			<path id="Vector" d="M18 8.5L14 8.5M18 14.5L14 14.5M18 17.5L14 17.5M10 8.5L8 8.5L6 8.5M8 8.5L8 6.5M8 8.5L8 10.5M9.5 14.5L8 16L6.5 17.5M8 16L6.5 14.5M8 16L9.5 17.5" stroke="#4470FE" stroke-opacity="1.000000" stroke-width="1.500000" stroke-linecap="round"/>
		</g>
	</g>
</svg>
