<svg width="10.345276" height="5.010254" viewBox="0 0 10.3453 5.01025" fill="none" xmlns="http://www.w3.org/2000/svg" xmlns:xlink="http://www.w3.org/1999/xlink">
	<desc>
			Created with Pixso.
	</desc>
	<defs/>
	<path id="Vector" d="M0.11 0.18C0.16 0.13 0.21 0.09 0.27 0.06C0.33 0.03 0.39 0.01 0.46 0.01C0.52 0 0.59 0.01 0.65 0.03C0.71 0.05 0.77 0.08 0.82 0.13L5.16 3.85L9.5 0.13C9.55 0.08 9.61 0.05 9.67 0.02C9.74 0 9.8 -0.01 9.87 0C9.94 0 10 0.02 10.06 0.05C10.12 0.08 10.18 0.12 10.22 0.17C10.26 0.22 10.3 0.28 10.32 0.34C10.34 0.41 10.34 0.47 10.34 0.54C10.33 0.61 10.31 0.67 10.28 0.73C10.25 0.79 10.21 0.84 10.15 0.88L5.49 4.88C5.4 4.96 5.28 5.01 5.16 5.01C5.04 5.01 4.93 4.96 4.84 4.88L0.17 0.88C0.07 0.8 0.01 0.68 0 0.54C-0.01 0.41 0.03 0.28 0.12 0.18L0.11 0.18Z" fill="#4470FE" fill-opacity="1.000000" fill-rule="evenodd"/>
</svg>
