<svg width="24.000000" height="24.000000" viewBox="0 0 24 24" fill="none" xmlns="http://www.w3.org/2000/svg" xmlns:xlink="http://www.w3.org/1999/xlink">
	<desc>
			Created with Pixso.
	</desc>
	<defs>
		<clipPath id="clip1_3438">
			<rect id="iconamoon:close-fill" rx="0.000000" width="23.000000" height="23.000000" transform="translate(0.500000 0.500000)" fill="white" fill-opacity="0"/>
		</clipPath>
	</defs>
	<rect id="iconamoon:close-fill" rx="0.000000" width="23.000000" height="23.000000" transform="translate(0.500000 0.500000)" fill="#FFFFFF" fill-opacity="0"/>
	<g clip-path="url(#clip1_3438)">
		<path id="Vector" d="M6.79 6.79C6.98 6.6 7.23 6.5 7.5 6.5C7.76 6.5 8.01 6.6 8.2 6.79L12 10.58L15.79 6.79C15.88 6.69 15.99 6.62 16.11 6.56C16.23 6.51 16.37 6.48 16.5 6.48C16.63 6.48 16.76 6.51 16.89 6.56C17.01 6.61 17.12 6.68 17.21 6.78C17.31 6.87 17.38 6.98 17.43 7.1C17.48 7.23 17.51 7.36 17.51 7.49C17.51 7.62 17.48 7.76 17.43 7.88C17.37 8 17.3 8.11 17.2 8.2L13.41 12L17.2 15.79C17.38 15.98 17.48 16.23 17.48 16.49C17.48 16.75 17.37 17 17.19 17.19C17 17.38 16.75 17.48 16.49 17.48C16.23 17.48 15.98 17.38 15.79 17.2L12 13.41L8.2 17.2C8.01 17.38 7.76 17.48 7.5 17.48C7.24 17.48 6.99 17.38 6.8 17.19C6.61 17 6.51 16.75 6.51 16.49C6.5 16.23 6.61 15.98 6.79 15.79L10.58 12L6.79 8.2C6.6 8.01 6.5 7.76 6.5 7.5C6.5 7.23 6.6 6.98 6.79 6.79Z" fill="#FFFFFF" fill-opacity="1.000000" fill-rule="evenodd"/>
	</g>
</svg>
