<svg width="24.000000" height="24.000000" viewBox="0 0 24 24" fill="none" xmlns="http://www.w3.org/2000/svg" xmlns:xlink="http://www.w3.org/1999/xlink">
	<desc>
			Created with Pixso.
	</desc>
	<defs>
		<clipPath id="clip1_3631">
			<rect id="flowbite:question-circle-solid" rx="0.000000" width="23.000000" height="23.000000" transform="translate(0.500000 0.500000)" fill="white" fill-opacity="0"/>
		</clipPath>
	</defs>
	<g opacity="0.300000">
		<rect id="flowbite:question-circle-solid" rx="0.000000" width="23.000000" height="23.000000" transform="translate(0.500000 0.500000)" fill="#FFFFFF" fill-opacity="0"/>
		<g clip-path="url(#clip1_3631)">
			<path id="Vector" d="M2 12C2 6.47 6.47 2 12 2C17.52 2 22 6.47 22 12C22 17.52 17.52 22 12 22C6.47 22 2 17.52 2 12ZM11 8.98C11.22 8.78 11.49 8.64 11.79 8.6C12.08 8.55 12.38 8.59 12.65 8.71C12.92 8.84 13.15 9.04 13.3 9.29C13.46 9.55 13.54 9.84 13.52 10.14L13.52 10.16C13.52 10.35 13.48 10.54 13.4 10.72C13.33 10.89 13.22 11.05 13.08 11.18C12.94 11.32 12.77 11.42 12.59 11.49C12.41 11.55 12.22 11.59 12.03 11.58C11.9 11.57 11.76 11.6 11.64 11.64C11.51 11.69 11.4 11.76 11.3 11.86C11.2 11.95 11.13 12.06 11.08 12.19C11.02 12.31 11 12.44 11 12.58L11 14C11 14.26 11.1 14.51 11.29 14.7C11.48 14.89 11.73 15 12 15C12.26 15 12.51 14.89 12.7 14.7C12.89 14.51 13 14.26 13 14L13 13.46C13.71 13.26 14.34 12.84 14.8 12.25C15.26 11.66 15.51 10.94 15.52 10.2C15.56 9.27 15.22 8.37 14.59 7.69C13.96 7.01 13.08 6.61 12.15 6.57C11.22 6.54 10.32 6.88 9.64 7.51C8.96 8.14 8.56 9.02 8.52 9.95C8.51 10.21 8.61 10.47 8.79 10.66C8.97 10.86 9.22 10.97 9.49 10.98C9.75 10.99 10.01 10.9 10.2 10.72C10.4 10.54 10.51 10.29 10.52 10.02C10.54 9.62 10.71 9.25 11 8.98ZM11.99 16C11.72 16 11.47 16.11 11.28 16.3C11.09 16.48 10.99 16.74 10.99 17C10.99 17.27 11.09 17.52 11.28 17.71C11.47 17.9 11.72 18 11.99 18L12 18C12.26 18 12.51 17.9 12.7 17.71C12.89 17.52 13 17.27 13 17C13 16.74 12.89 16.48 12.7 16.3C12.51 16.11 12.26 16 12 16L11.99 16Z" fill="#7080AA" fill-opacity="1.000000" fill-rule="evenodd"/>
		</g>
	</g>
</svg>
