<svg width="24.000000" height="24.000000" viewBox="0 0 24 24" fill="none" xmlns="http://www.w3.org/2000/svg" xmlns:xlink="http://www.w3.org/1999/xlink">
	<desc>
			Created with Pixso.
	</desc>
	<defs>
		<clipPath id="clip1_2281">
			<rect id="solar:maximize-square-3-line-duotone" rx="0.000000" width="23.000000" height="23.000000" transform="translate(0.500000 0.500000)" fill="white" fill-opacity="0"/>
		</clipPath>
	</defs>
	<rect id="solar:maximize-square-3-line-duotone" rx="0.000000" width="23.000000" height="23.000000" transform="translate(0.500000 0.500000)" fill="#FFFFFF" fill-opacity="0"/>
	<g clip-path="url(#clip1_2281)">
		<g opacity="0.500000">
			<path id="Vector" d="M13 22C17.05 21.99 19.17 21.89 20.53 20.53C22 19.07 22 16.71 22 12C22 7.28 22 4.92 20.53 3.46C19.07 2 16.71 2 12 2C7.28 2 4.92 2 3.46 3.46C2.1 4.82 2 6.94 2 11" stroke="#4470FE" stroke-opacity="1.000000" stroke-width="1.500000" stroke-linecap="round"/>
		</g>
		<path id="Vector" d="M12 12L17 7M17 10.75L17 7L13.25 7" stroke="#4470FE" stroke-opacity="1.000000" stroke-width="1.500000" stroke-linejoin="round" stroke-linecap="round"/>
		<path id="Vector" d="M2.58 14.58C3.17 14 4.11 14 6 14C7.88 14 8.82 14 9.41 14.58C10 15.17 10 16.11 10 18C10 19.88 10 20.82 9.41 21.41C8.82 22 7.88 22 6 22C4.11 22 3.17 22 2.58 21.41C2 20.82 2 19.88 2 18C2 16.11 2 15.17 2.58 14.58Z" stroke="#4470FE" stroke-opacity="1.000000" stroke-width="1.500000"/>
	</g>
</svg>
