<svg width="24.000000" height="24.000000" viewBox="0 0 24 24" fill="none" xmlns="http://www.w3.org/2000/svg" xmlns:xlink="http://www.w3.org/1999/xlink">
	<desc>
			Created with Pixso.
	</desc>
	<defs>
		<clipPath id="clip1_3053">
			<rect id="solar:restart-line-duotone" rx="0.000000" width="23.000000" height="23.000000" transform="translate(0.500000 0.500000)" fill="white" fill-opacity="0"/>
		</clipPath>
	</defs>
	<rect id="solar:restart-line-duotone" rx="0.000000" width="23.000000" height="23.000000" transform="translate(0.500000 0.500000)" fill="#FFFFFF" fill-opacity="0"/>
	<g clip-path="url(#clip1_3053)">
		<mask id="mask1_3056" mask-type="alpha" maskUnits="userSpaceOnUse" x="0.000000" y="0.000000" width="24.000000" height="24.000000">
			<path id="Vector" d="M0 0L24 0L24 24L0 24L0 0Z" fill="#000000" fill-opacity="1.000000" fill-rule="nonzero"/>
		</mask>
		<g mask="url(#mask1_3056)">
			<g opacity="0.500000">
				<path id="Vector" d="M19.72 10.92C20.23 12.8 20.03 14.79 19.17 16.53C18.32 18.27 16.86 19.64 15.06 20.39C13.27 21.13 11.27 21.2 9.43 20.58C7.59 19.95 6.04 18.68 5.07 17C4.1 15.32 3.77 13.34 4.15 11.44C4.53 9.54 5.59 7.84 7.12 6.65C8.66 5.47 10.58 4.89 12.52 5.02C14.45 5.14 16.28 5.97 17.65 7.34L18.36 8.04" stroke="#FFFFFF" stroke-opacity="1.000000" stroke-width="1.500000" stroke-linejoin="round" stroke-linecap="round"/>
			</g>
			<path id="Vector" d="M14.12 8.05L18.36 8.05L18.36 3.8" stroke="#FFFFFF" stroke-opacity="1.000000" stroke-width="1.500000" stroke-linejoin="round" stroke-linecap="round"/>
		</g>
	</g>
</svg>
