<svg width="20.357544" height="21.500000" viewBox="0 0 20.3575 21.5" fill="none" xmlns="http://www.w3.org/2000/svg" xmlns:xlink="http://www.w3.org/1999/xlink">
	<desc>
			Created with Pixso.
	</desc>
	<defs/>
	<path id="Vector" d="M10.17 13.75C8.52 13.75 7.17 12.4 7.17 10.75C7.17 9.09 8.52 7.75 10.17 7.75C11.83 7.75 13.17 9.09 13.17 10.75C13.17 12.4 11.83 13.75 10.17 13.75Z" stroke="#FFFFFF" stroke-opacity="1.000000" stroke-width="1.500000"/>
	<g opacity="0.500000">
		<path id="Vector" d="M10.17 0.75C9.24 0.75 8.78 0.75 8.41 0.9C8.17 1 7.95 1.14 7.76 1.33C7.57 1.52 7.43 1.74 7.33 1.98C7.23 2.2 7.2 2.46 7.18 2.84C7.18 3.12 7.1 3.38 6.96 3.62C6.82 3.86 6.63 4.06 6.39 4.2C6.15 4.33 5.88 4.4 5.61 4.4C5.34 4.4 5.07 4.34 4.83 4.2C4.49 4.03 4.25 3.93 4.01 3.9C3.48 3.83 2.95 3.97 2.53 4.29C2.21 4.54 1.98 4.94 1.51 5.75C1.05 6.55 0.81 6.96 0.76 7.35C0.73 7.61 0.75 7.88 0.81 8.13C0.88 8.38 1 8.62 1.16 8.83C1.31 9.02 1.51 9.18 1.83 9.38C2.31 9.68 2.61 10.19 2.61 10.75C2.61 11.3 2.31 11.81 1.83 12.11C1.51 12.31 1.31 12.47 1.16 12.66C1 12.87 0.88 13.11 0.81 13.36C0.75 13.61 0.73 13.88 0.76 14.14C0.81 14.53 1.05 14.94 1.51 15.75C1.98 16.55 2.21 16.95 2.53 17.2C2.74 17.36 2.97 17.48 3.23 17.54C3.48 17.61 3.75 17.63 4.01 17.59C4.25 17.56 4.49 17.46 4.83 17.29C5.07 17.15 5.34 17.09 5.61 17.09C5.88 17.09 6.15 17.16 6.39 17.29C6.88 17.57 7.16 18.09 7.18 18.65C7.2 19.03 7.23 19.29 7.33 19.51C7.43 19.75 7.57 19.97 7.76 20.16C7.95 20.35 8.17 20.49 8.41 20.59C8.78 20.75 9.24 20.75 10.17 20.75C11.11 20.75 11.57 20.75 11.94 20.59C12.18 20.49 12.4 20.35 12.59 20.16C12.77 19.97 12.92 19.75 13.02 19.51C13.11 19.29 13.15 19.03 13.16 18.65C13.18 18.09 13.47 17.57 13.95 17.29C14.19 17.16 14.46 17.09 14.74 17.09C15.01 17.09 15.28 17.15 15.52 17.29C15.86 17.46 16.1 17.56 16.34 17.59C16.6 17.63 16.87 17.61 17.12 17.54C17.37 17.48 17.61 17.36 17.82 17.2C18.13 16.96 18.37 16.55 18.83 15.75C19.3 14.94 19.53 14.54 19.58 14.14C19.62 13.88 19.6 13.61 19.53 13.36C19.47 13.11 19.35 12.87 19.19 12.66C19.04 12.47 18.83 12.31 18.51 12.11C18.28 11.96 18.08 11.76 17.95 11.53C17.81 11.29 17.74 11.02 17.74 10.75C17.74 10.19 18.04 9.68 18.51 9.39C18.83 9.18 19.04 9.02 19.19 8.83C19.35 8.62 19.47 8.38 19.53 8.13C19.6 7.88 19.62 7.61 19.58 7.35C19.53 6.96 19.3 6.55 18.83 5.75C18.37 4.94 18.13 4.54 17.82 4.29C17.61 4.13 17.37 4.01 17.12 3.95C16.87 3.88 16.6 3.86 16.34 3.9C16.1 3.93 15.86 4.03 15.52 4.2C15.28 4.34 15.01 4.4 14.74 4.4C14.46 4.4 14.19 4.33 13.95 4.2C13.72 4.06 13.52 3.86 13.39 3.62C13.25 3.38 13.17 3.12 13.16 2.84C13.15 2.46 13.11 2.2 13.02 1.98C12.92 1.74 12.77 1.52 12.59 1.33C12.4 1.14 12.18 1 11.94 0.9C11.57 0.75 11.11 0.75 10.17 0.75Z" stroke="#FFFFFF" stroke-opacity="1.000000" stroke-width="1.500000"/>
	</g>
</svg>
