<svg width="84.333336" height="84.333336" viewBox="0 0 84.3333 84.3333" fill="none" xmlns="http://www.w3.org/2000/svg" xmlns:xlink="http://www.w3.org/1999/xlink">
	<desc>
			Created with Pixso.
	</desc>
	<defs>
		<clipPath id="clip1_2048">
			<rect id="Frame" rx="0.000000" width="15.863248" height="25.846153" transform="translate(34.735134 29.735043)" fill="white" fill-opacity="0"/>
		</clipPath>
		<linearGradient x1="42.166790" y1="7.737791" x2="42.166790" y2="76.595673" id="paint_linear_1_2043_0" gradientUnits="userSpaceOnUse">
			<stop stop-color="#4470FE"/>
			<stop offset="1.000000" stop-color="#DBFFFF"/>
			<stop offset="1.000000" stop-color="#DBFFFF" stop-opacity="0.501961"/>
		</linearGradient>
		<linearGradient x1="7.737701" y1="-26.691206" x2="7.737701" y2="42.166672" id="paint_linear_1_2044_0" gradientUnits="userSpaceOnUse">
			<stop stop-color="#4470FE"/>
			<stop offset="1.000000" stop-color="#DBFFFF" stop-opacity="0.501961"/>
		</linearGradient>
		<linearGradient x1="42.108002" y1="13.256617" x2="42.108002" y2="70.959511" id="paint_linear_1_2046_0" gradientUnits="userSpaceOnUse">
			<stop stop-color="#DBFFFF"/>
			<stop offset="1.000000" stop-color="#4470FE"/>
		</linearGradient>
		<linearGradient x1="13.239033" y1="-15.630018" x2="13.239033" y2="42.107998" id="paint_linear_1_2047_0" gradientUnits="userSpaceOnUse">
			<stop stop-color="#DBFFFF"/>
			<stop offset="1.000000" stop-color="#4470FE"/>
		</linearGradient>
	</defs>
	<path id="Ellipse 1" d="M15.02 63.35C11.66 59.05 9.45 54.11 8.42 48.96C6.87 41.31 8 33.73 11.16 27.2C14.55 20.16 20.03 14.81 26.5 11.51C31.42 8.99 36.68 7.77 41.87 7.73C45.38 7.7 47.69 11.07 47.08 14.52C46.46 17.98 43.12 20.18 39.64 20.59C37.04 20.89 34.55 21.66 32.28 22.83C27.89 25.06 24.59 28.6 22.61 32.72C20.46 37.16 19.97 41.96 20.88 46.45C21.4 49.06 22.37 51.47 23.7 53.6C25.55 56.59 25.9 60.57 23.58 63.2C21.25 65.84 17.18 66.11 15.02 63.35Z" fill="url(#paint_linear_1_2043_0)" fill-opacity="1.000000" fill-rule="evenodd"/>
	<path id="Ellipse 2" d="M38.82 7.89C45.64 7.22 52.35 8.63 58.19 11.7C66.39 16 72.12 23.16 74.83 31.32C77.75 40.1 76.93 49.24 73.22 57C69.24 65.36 62.3 71.37 54.26 74.39C47.73 76.85 40.91 77.18 34.57 75.74C31.15 74.97 29.66 71.16 31.05 67.94C32.44 64.72 36.19 63.34 39.68 63.74C43.14 64.14 46.61 63.69 49.79 62.49C55.26 60.44 59.42 56.41 61.75 51.52C64.28 46.25 64.48 40.47 62.77 35.32C60.93 29.78 57.07 25.47 52.27 22.95C49.12 21.28 45.73 20.48 42.39 20.44C38.88 20.41 35.33 18.57 34.36 15.2C33.38 11.83 35.33 8.23 38.82 7.89Z" fill="url(#paint_linear_1_2044_0)" fill-opacity="1.000000" fill-rule="evenodd"/>
	<g opacity="0.200000">
		<path id="Ellipse 3" d="M19.36 59.79C15.87 55.29 13.88 49.96 13.43 44.5C12.78 36.81 15.22 29.57 19.71 23.99C24.53 17.98 31.29 14.43 38.37 13.5C44.11 12.74 49.69 13.75 54.55 16.09C57.2 17.36 57.7 20.74 55.97 23.11C54.23 25.49 50.9 25.91 48.13 24.93C45.41 23.97 42.54 23.69 39.75 24.06C34.93 24.69 30.8 27.16 27.98 30.68C24.92 34.46 23.64 39.11 24.01 43.61C24.26 46.57 25.2 49.3 26.65 51.67C28.19 54.16 28.48 57.49 26.54 59.69C24.58 61.89 21.16 62.12 19.36 59.79Z" fill="url(#paint_linear_1_2046_0)" fill-opacity="1.000000" fill-rule="evenodd"/>
		<path id="Ellipse 4" d="M17.19 27.51C19.9 22.87 23.8 19.19 28.35 16.73C34.83 13.21 42.08 12.44 48.75 14.02C55.93 15.71 61.85 19.96 65.77 25.58C70 31.63 71.58 38.74 70.76 45.54C69.89 52.87 66.33 59.23 61.18 63.76C55.65 68.64 48.76 71.01 41.91 70.96C34.53 70.92 27.81 68.1 22.74 63.5C18.68 59.83 15.91 55.27 14.45 50.38C13.6 47.56 15.77 44.91 18.7 44.6C21.62 44.29 24.17 46.46 25.32 49.17C26.36 51.66 27.94 53.84 29.88 55.6C33.33 58.73 37.66 60.28 41.98 60.31C46.64 60.35 50.9 58.62 54.14 55.76C57.64 52.69 59.67 48.56 60.18 44.27C60.74 39.65 59.51 35.22 57.03 31.68C54.37 27.86 50.5 25.38 46.29 24.39C41.77 23.31 37.23 24.04 33.43 26.1C31.01 27.4 29 29.18 27.47 31.26C25.72 33.63 22.72 35.14 19.95 34.14C17.18 33.14 15.7 30.05 17.19 27.51Z" fill="url(#paint_linear_1_2047_0)" fill-opacity="1.000000" fill-rule="evenodd"/>
	</g>
	<rect id="Frame" rx="0.000000" width="15.863248" height="25.846153" transform="translate(34.735134 29.735043)" fill="#FFFFFF" fill-opacity="0"/>
	<g clip-path="url(#clip1_2048)">
		<g opacity="0.400000">
			<path id="Vector" d="M42.66 29.66L34.66 43.05L42.66 39.4L42.66 29.66Z" fill="#4E79FE" fill-opacity="0.400000" fill-rule="nonzero"/>
		</g>
		<path id="Vector" d="M42.66 55.64L42.66 49.03L34.66 44.26L42.66 55.64Z" fill="#4E79FE" fill-opacity="0.400000" fill-rule="nonzero"/>
		<path id="Vector" d="M34.66 43.05L42.66 39.4L42.66 47.7L34.66 43.05Z" fill="#4E79FE" fill-opacity="0.800000" fill-rule="nonzero"/>
		<path id="Vector" d="M42.66 29.66L50.66 43.05L42.66 39.4L42.66 29.66Z" fill="#4E79FE" fill-opacity="0.400000" fill-rule="nonzero"/>
		<path id="Vector" d="M42.66 55.64L42.66 49.03L50.66 44.26L42.66 55.64Z" fill="#4E79FE" fill-opacity="0.600000" fill-rule="nonzero"/>
		<path id="Vector" d="M50.66 43.05L42.66 39.4L42.66 47.7L50.66 43.05Z" fill="#4E79FE" fill-opacity="1.000000" fill-rule="nonzero"/>
	</g>
</svg>
